<?xml version="1.0" encoding="UTF-8"?>
<svg id="Lag_1" data-name="Lag 1" xmlns="http://www.w3.org/2000/svg" viewBox="0 0 500 200">
  <defs>
    <style>
      .cls-1 {
        fill: #028737;
      }

      .cls-2 {
        stroke-width: 2.76px;
      }

      .cls-2, .cls-3 {
        fill: none;
        stroke: #1a8d41;
        stroke-linecap: round;
        stroke-miterlimit: 10;
      }

      .cls-4 {
        fill: #008635;
        font-family: Poppins-Regular, Poppins;
        font-size: 37.51px;
        isolation: isolate;
      }

      .cls-3 {
        stroke-width: 3.1px;
      }
    </style>
  </defs>
  <g id="Lag_4" data-name="Lag 4">
    <text class="cls-4" transform="translate(222.75 119.03)"><tspan x="0" y="0">Køge</tspan></text>
    <text class="cls-4" transform="translate(222.75 164.04)"><tspan x="0" y="0">Boligselskab</tspan></text>
    <g id="Hus-4">
      <line class="cls-3" x1="61.75" y1="180.44" x2="211.65" y2="180.33"/>
      <line class="cls-3" x1="211.65" y1="180.33" x2="211.85" y2="74.57"/>
      <line class="cls-3" x1="61.75" y1="180.44" x2="61.85" y2="74.36"/>
      <g id="Tag-4">
        <line class="cls-2" x1="136.75" y1="19.56" x2="61.85" y2="74.46"/>
        <line class="cls-2" x1="211.85" y1="74.57" x2="136.75" y2="19.56"/>
      </g>
    </g>
    <g>
      <g id="Dame-4">
        <path class="cls-1" d="m196.85,110.04c-1.5-4.8-5.1-8.8-9.4-11.4-4.3-2.6-9.4-3.8-14.4-4-3.5-.2-7.1.2-10.6,1-8.7,2-17.3,7.9-18.9,16.7-.4,1.9-.4,4,.4,5.8.4,1.1,1.1,2,1.4,3.1.5,1.6.2,3.3-.2,4.9-.2,1-.4,2-.7,2.9,0,.1.1.1.1.2q.1.1.2.2c.1.1.1.3-.1.4-.1,0,0,.4,0,.5,0,.2-.1.3-.2.4v1.1c.1.1.2.2.2.4s0,.3.1.4c.1.3.3.7.4,1,.1.4.1.8,0,1.2,0,.4-.1.9,0,1.2.1.3.2.6.3.9.1.4.1.7.1,1.1v.9c.1,0,.2.1.2.3v.5h0v.2h0c0-.1,0,0,0,0v.1c0,.1,0,0,0,0v.1h0v.2c0-.1,0,.1,0,0v.5h0v.3h0s0,.2,0,.1h0v.1h0v.1h0v.3q0,.1,0,0v1h0c0-.1,0,0,0,0v.3q0,.1-.1.2h0c0-.1,0,0,0,.1,0,0,0,.1-.1.1h0c.4,1.5.2,3.3,1.2,4.4,1.3,1.4,3.6.9,5.5,1,4.5.2,8.1,4.1,9.7,8.2,1,2.6,1.5,5.4,1.9,8.2h0c.2-.1.4-.1.7-.1.5-.1.9-.3,1.3-.4.5-.1,1-.2,1.5-.4,1.6-.6,3.3-.9,5-1.2v-.1c.1-.2.2-.3.3-.4,0-.1.1-.3.1-.4.1-.2.2-.4.2-.6,0-.5.3-.9.3-1.4,0-.1,0-.3.1-.4,0-.1.1-.1.1-.2v-.4c0-.1.1-.2.1-.3.1-.4.2-.9.3-1.4.2-.9.6-1.8,1-2.7s.8-1.8,1.3-2.6c.2-.4.4-.9.6-1.3.1-.3.3-.7.6-.9s.5-.5.7-.8c.1-.2.3-.3.5-.4.2-.1.3-.3.5-.5.3-.4.6-.7.9-1,.3-.3.6-.7.9-1,.3-.4.7-.7,1-1.1.2-.3.5-.5.8-.8l.1-.1c.1-.2.2-.5.3-.7.1-.6.3-1.2.5-1.8.1-.4.4-.8.7-1.2.1-.1.2-.3.4-.4.1-.1.2-.2.3-.3q.1-.1.2-.2c.1-.1.1-.2.2-.2l.1-.1c.5-.9,1.4-1.6,2.2-2.3,3.4-2.7,7-5.6,8.6-9.6.6-1.5.9-3,.9-4.6l.2.3c.5-4.6.8-9.1-.5-13.2h0Z"/>
        <path class="cls-1" d="m187.05,132.14c4.1,4.8,8.5,9.5,13,14,.2-2.1.3-4.3.5-6.4.1-1.2.3-2.5,1.2-3.1,1.2-.8,3.2-.2,4-1.4.5-.8.2-1.9-.4-2.6-1.8-2.3-5.1-2.6-8-2.7-2.7-.2-5.5-.3-10.3,2.2h0Z"/>
        <path class="cls-1" d="m147.25,138.84v-.2c0-.1.1-.2.2-.3v-.9c0-.3,0-.4-.1-.7-.1-.2,0-.5,0-.7v-2.2c0-.2.1-.3.2-.4v-1.5c0-.2.1-.6,0-.8l-.1-.1c-.1-.1-.1-.2-.1-.3s-.1-.2-.1-.3-.1-.2-.2-.3c-.1-.1-.1-.3-.1-.4-.2-.3-.2-.6-.2-1-.1-.1-.2-.2-.2-.4v-.3c0-.1-.1-.2-.1-.3v-.5c-.1-.1-.2-.2-.3-.3-.1-.2,0-.5,0-.8,0-.2-.1-.2-.1-.3v-.3c0-.2,0-.3-.1-.4,0-.1-.1-.2-.1-.3h0c0,2.6-1.2,5.1-3,7-.4.5-.9.9-1.1,1.5-.3,1.1.5,2.3,1.5,2.9s2.2,1,3.1,1.8c.4.4.8.8,1.1,1.3q-.2-.4-.2-.5h0Z"/>
        <path class="cls-1" d="m145.55,138.74c0,.5-.1,1.1-.1,1.6v2.1c0,.3,0,.5.1.7.1,0,.1-.1.2-.2.1-.2.2-.3.3-.4s.1-.2.2-.3c.1-.1.1-.3.1-.4.1-.4.1-.7.2-1.1v-.5c-.1-.5-.3-.9-.6-1.4"/>
        <path class="cls-1" d="m185.25,139.04c-1,1.1-1.7,2.5-2.2,3.9-.2.6-.4,1.2-.6,1.8-.3.6-.6,1.2-.9,1.8-.9,1.8-1.4,3.7-1.7,5.7,0,.3-.1.7-.1,1-.1,1.2-.2,2.3-.3,3.5-.1,1.5-.2,3,.1,4.4-2.4.4-4.8,1-7.1,1.7-.3.1-.6.2-.8,0s-.3-.5-.3-.8c0-1-.1-2-.1-2.9,0-1.1,0-2.1.2-3.1.2-1.2.6-2.4,1-3.6,1.5-3.9,3.7-7.5,6.6-10.6.7-.8,1.5-1.6,2.4-2.2,1.6-1.3,3.6-2,3.8-.6h0Z"/>
        <path class="cls-1" d="m176.75,137.14l.1-.1c-1.1.7-1.8,1.8-2.5,2.9-1,1.7-2,3.4-2.8,5.2-.7,1.5-1.4,3-1.8,4.6-.5,1.9-.6,3.8-.8,5.8,0,.6-.1,1.1-.1,1.7-.1,1.5-.2,3,0,4.5-.9-.3-1.7-.8-2.2-1.6.1-.1,0-.3-.1-.3s-.3.1-.3.2c.8.4,1.6.7,2.4,1-.8,0-1.6-.5-2.2-1.1-.4-.4-.8-.9-1.2-1.4-1.3-1.6-2.5-3.3-3.2-5.2-.4-1.3-.5-2.7-.6-4s-.1-2.6.2-3.9c.7-2.9,3-5.2,5.4-7.1.6-.5,1.3-1,2-1.3.6-.3,1.3-.4,2-.5,1-.2,2-.4,3-.3,1.1-.2,2.1.1,2.7.9h0Z"/>
      </g>
      <g id="Mand-4">
        <path class="cls-1" d="m142.65,123.24c-.1-.2-.2-.3-.3-.5-.1-.1,0-.2.1-.3-.1-.2-.2-.4-.3-.7,0-.1-.1-.3-.1-.4,0,0-.1,0-.1-.1-.2-.4-.4-.9-.5-1.4-.1-.3-.3-.5-.4-.8v-.1c-.2-.3-.3-.7-.4-1.1v-.1c0-.1-.1-.3-.1-.4q-.1-.1-.1-.2c-.1-.1-.1-.2-.1-.3s0-.2-.1-.4v-.1c-.2-.1-.3-.3-.3-.5-.1,0-.1-.1-.1-.2v-.3c-.1-.2-.1-.4-.1-.7s-.1-.7.1-.9v-1q0-.1.1-.2v-.2c0-.1.1-.2.1-.3s0-.3.1-.4v-.2c0-.1.1-.2.1-.2v-.5c0-.1,0-.2.1-.3v-.5c0-.1.1-.2.1-.4v-.2c.1-.2.2-.3.3-.4s.3-.3.4-.4c.1-.1.2-.3.3-.5s.1-.3.2-.5c.1-.2.2-.3.3-.4s.1-.2.2-.3c.1-.3.3-.4.3-.7,0-.1.1-.2.2-.2v-.1c0-.1.1-.2.1-.3s.1-.3.3-.3c0,0,0-.1.1-.1.1-.2.3-.4.5-.6,0,0,.1-.1.1-.2v-.1c0-.2.1-.2.2-.4q.1-.1.2-.2c.1-.1.2-.1.2-.2s.1-.1.1-.2c.1-.1.1-.3.3-.4.1-.1.2-.2.3-.3q.1-.1.1-.2t.2-.2s0-.1.1-.1q0-.1.1-.2c0-.1.1-.2.1-.2h0v-.1l.1-.1c.1-.1.2-.2.2-.3.2-.3.5-.6.7-.9.1-.2.2-.3.3-.5.1-.1.1-.2.2-.2.1-.2.3-.4.4-.6.2-.3.3-.7.4-1,.2-.3.3-.6.4-.9.1-.1.1-.3.2-.4.1-.2.1-.3.2-.5,0-.1.1-.1.1-.2v-.2c0-.1.1-.2.2-.4,0-.1,0-.2.1-.3.1-.1.2-.2.2-.3,0-.2.1-.3.2-.5.1-.2.2-.3.3-.5,0-.2,0-.3.1-.5,0-.2.1-.4.1-.5,0-.2.1-.4.2-.5,0-.1.2-.3.2-.4s.1-.2.1-.2v-.3c0-.1.1-.1.1-.2,0-.2,0-.4.1-.6s.2-.3.2-.5c.1-.2.2-.5.4-.7v-.1c1.4-6.3,1.6-12.9-1.4-18.5-2.8-5.2-7.9-8.8-13.4-10.7s-11.5-2.3-17.3-2.2c-3.6,0-7.5.3-10.4,2.6-1.8,1.4-4.5,2.5-6.1,4.1-1.8,1.9-2.6,4.2-4.3,6.1-2.6,2.8-3.7,6.9-3,10.6.6,3,2.3,5.9,2.3,9,0,2.6-1.2,5.1-3,7-.4.5-.9.9-1.1,1.5-.3,1.1.5,2.3,1.5,2.9,1,.6,2.2,1,3.1,1.8,1.7,1.4,1.9,3.9,2.2,6.1s1,4.7,3.1,5.5c1.1.4,2.2.3,3.4.5,3.4.5,5.7,3.6,7.4,6.5,1.8,3,3.3,6.1,4.5,9.4.9,2.3,1.8,4.9,1.4,6.2,5.7-2.4,11.3-4.9,17-7.3,1.9-.8,4-1.8,4.9-3.7.5-1.1.5-2.3.5-3.5q0,.2,0,.1h0Z"/>
        <path class="cls-1" d="m102.15,71.64c-2.9,0-5.8.7-8.4,1.9,2.8-2,5.9-3.5,9.1-4.4-2.8.1-5.7.8-8.2,2.1,2.9-2.1,5.9-4.2,9-6-1.7.5-3.4,1-5.1,1.6-.5-.7-1.4-1.1-2.2-.8,3.3-2.5,7.1-4.2,11.1-5-2.8.4-5.6.6-8.3.7,5.2-3,11.7-4,17.6-2.6,1.3.3,2.6.7,4,.7,1.3,0,2.8-.5,3.5-1.7l-22.1,13.5h0Z"/>
        <path class="cls-1" d="m151.55,89.44c-.1.3-.2.5-.3.8-.1-.2,0-.5.1-.7.1,0,.1-.1.2-.1Z"/>
        <path class="cls-1" d="m151.35,86.94c.5,2.3-.3,4.6-1.1,6.8-.6,1.7-1.2,3.4-2,5-.6,1.2-1.3,2.3-2.1,3.3-1,1.3-2.2,2.4-3.1,3.8-.9,1.3-1.5,2.8-2,4.3-.6,1.5-1.1,3.1-.9,4.7.1.9.5,1.8.8,2.6.3.6.5,1.2.8,1.8.4,1.1.9,2.2,1,3.4.1,1.2-.2,2.4-1,3.3-.1.1-.3.2-.4.2-.3,0-.5-.2-.7-.5-.6-1-1.3-1.9-1.9-2.8-1.2-1.9-2.5-3.7-3.2-5.9-1-3.1-.7-6.5.3-9.6s2.6-5.9,4.2-8.7c1.1-1.9,2.2-3.7,3.4-5.6.6-1,1.3-2,2.1-2.8,1.6-1.8,3.9-2.5,5.8-3.3h0Z"/>
      </g>
      <g id="Dreng-4">
        <path class="cls-1" d="m106.65,118.54s-9.2-6.2-31,1.8c0,0-8.7,2-5.4,21.4-.2,2.5,0,4.9.4,7.4.6,3.7,1.6,7.3,3.6,10.5h0q.1,0,.2.1c.1.1.1.2.1.2h1.2c.1,0,.1-.1.2-.1h.1s.1-.1.2-.1h.3l.2-.1c.1,0,.1-.1.2-.1h.2q.1,0,.2-.1s.1,0,.1-.1l.1-.1h.1s0-.1.1-.1c-.2.2,0,0,0-.1q.1-.1.2-.1c.1-.1.3-.2.5-.2.2-.1.5-.1.7,0h.8c.1,0,.2-.1.3-.1.4-.1.8-.1,1.2-.1h2.1c.2,0,.5.1.7.1h.3c.1,0,.2.1.3.1s.2.1.3.1h0s.1,0,.1.1h.2q.1,0,.1.1t.2.1l.1.1h0l.1.1h0c.1,0,.2.1.3.2.1,0,.1-.1.2,0s.3.1.4.2c.1.1.3.2.5.3.1,0,.1.1.2.1s.1.1.2.1c.3.1.5.3.7.4-.2-.1.1.1.1.1l.1.1.2.1.1.1c.1.1.3.2.4.3s.2.2.3.4c0,.1.1.1.2.2.1,0,.1.1.1.1.1,0,.1.1.2.1.1.1.2.1.3.2,0,0,.1,0,.1.1.1.1.1,0,0,0,.1,0,.2,0,.2.1.1,0,.2.1.2.2v.8s0,.1.1.2l.1.1c.1.1.2.2.2.3v.1q.1.1.2.2h0c.4.4.7.8,1.1,1.2q.1.1.1.2l.1.1,15.7-8.8s-4.6-4-1.4-7.3c3.3-3,17.2-14.7-.5-31.3h0Z"/>
        <path class="cls-1" d="m70.45,141.54l.5,2.7c.1.4.1.8-.1,1.1-.1.2-.4.3-.5.5-.1.1-.1.3-.2.4-.2.4-.8.6-1.2.9-.3.2-.6.5-.7.9-.1.2-.1.4-.1.5.1.4.4.6.7.9.4.2.7.4,1.1.6,1,.5,1.6,1.5,1.6,2.5v.5c0,.2.2.3.4.4.2.1.5,0,.6-.2s.2-.4.2-.6c.2-1.6-.1-3.3-.5-4.9-.2-.9-.4-1.7-.8-2.6-.2-.4-.4-.8-.5-1.2-.1-.2-.1-.5-.1-.7,0-.5-.1-.8-.4-1.7h0Z"/>
        <path class="cls-1" d="m72.95,125.24c-1.9,0-3.7.3-5.4.8,1.8-.8,3.8-1.4,5.9-1.8-1.8,0-3.6.3-5.3.8,1.9-.9,3.8-1.7,5.8-2.4-1.1.2-2.2.4-3.2.6-.3-.3-.9-.4-1.4-.3,2.1-1,4.6-1.7,7.1-2-1.8.1-3.6.2-5.4.3,3.4-1.2,7.5-1.6,11.3-1,.8.1,1.7.3,2.6.3s1.8-.2,2.2-.7l-14.2,5.4h0Z"/>
        <path class="cls-1" d="m72.95,156.44c.1.9.8,1.7,1.1,2.6.1.2.1.3.2.5.3.6,1.2.6,1.9.6,2.5-.3,5-1.3,7.5-1,2,.2,3.8,1.2,5.3,2.5s2.7,2.9,3.9,4.4c0,.1.1.1.2.1s.1,0,.1-.1c.3-.2.5-.4.5-.8,0-.2-.1-.3-.1-.5-.2-.5-.5-1.1-.8-1.6-.5-.8-1.1-1.5-1.7-2.2-1.3-1.4-2.7-2.6-4.4-3.4-2.7-1.3-5.9-1.3-8.9-.8-.3.1-.7.1-1,.1s-.6-.1-.8-.2c-1-.3-2.1-.3-3-.2h0Z"/>
      </g>
    </g>
  </g>
</svg>